<svg version="1.1" id="Layer_1" xmlns="http://www.w3.org/2000/svg" xmlns:xlink="http://www.w3.org/1999/xlink" x="0px" y="0px"
	 width="100%" viewBox="0 0 960 720" enable-background="new 0 0 960 720" xml:space="preserve">
<path fill="#5F518F" opacity="1.000000" stroke="none"
	d="
M570.000000,721.000000 
	C380.000061,721.000000 190.500107,721.000000 1.000127,721.000000 
	C1.000085,481.000122 1.000085,241.000259 1.000042,1.000288 
	C320.999786,1.000192 640.999573,1.000192 960.999512,1.000096 
	C960.999634,240.999710 960.999634,480.999420 960.999817,720.999573 
	C830.833313,721.000000 700.666687,721.000000 570.000000,721.000000 
M610.224182,681.970947 
	C620.017578,677.240967 630.036011,672.919434 639.547424,667.677734 
	C651.506958,661.086914 663.227478,654.016968 674.713989,646.629578 
	C682.590088,641.564209 690.121765,635.887695 697.385132,629.966431 
	C704.580627,624.100403 711.473816,617.815491 718.089050,611.297546 
	C726.790955,602.723755 735.500427,594.092651 743.433167,584.824219 
	C749.583618,577.638184 753.896484,568.854492 760.187256,561.819214 
	C770.410950,550.385742 776.816711,536.669922 784.433350,523.724426 
	C790.174866,513.965881 794.510071,503.327087 798.911743,492.845184 
	C805.937988,476.113342 811.124573,458.746216 814.934265,441.012421 
	C816.970642,431.533234 818.404480,421.920807 819.972473,412.345978 
	C821.099670,405.462341 822.957642,398.523743 822.831055,391.640167 
	C822.331299,364.457672 824.657104,337.268463 819.388489,310.099365 
	C816.130676,293.299683 812.907043,276.565063 807.951538,260.222168 
	C803.119263,244.285858 797.503540,228.627609 789.082153,214.093201 
	C783.012695,203.618195 777.953125,192.536224 771.549194,182.283310 
	C765.779175,173.045334 758.955750,164.441833 752.295227,155.790726 
	C746.547119,148.324890 740.510803,141.067963 734.345581,133.940384 
	C729.567749,128.416672 724.442871,123.188614 719.380615,117.917114 
	C715.634766,114.016418 711.983032,109.971046 707.863037,106.495453 
	C699.645813,99.563446 691.285461,92.779938 682.700500,86.311569 
	C675.366577,80.785751 667.818970,75.491623 660.020569,70.651222 
	C654.204590,67.041298 647.628906,64.665749 641.757874,61.131950 
	C627.811523,52.737518 612.732849,46.956261 597.730896,40.875809 
	C581.790405,34.415001 565.311646,29.901560 548.570984,26.386265 
	C539.838867,24.552656 530.811157,24.151615 521.933533,22.978346 
	C515.197510,22.088118 508.463593,20.018335 501.770569,20.182354 
	C480.871338,20.694515 459.935333,18.232130 439.045776,22.730116 
	C425.694611,25.604916 411.774109,25.548174 398.551056,29.887314 
	C388.811279,33.083405 378.497040,34.627914 368.921234,38.201241 
	C355.003937,43.394657 341.239868,49.185768 327.939514,55.787838 
	C316.746460,61.343876 306.168549,68.199471 295.577667,74.890343 
	C286.150330,80.846161 276.771484,86.964607 267.933899,93.744720 
	C258.536926,100.953995 249.799973,109.023781 240.778610,116.722282 
	C238.413208,118.740852 235.762421,120.517960 233.755569,122.847733 
	C224.799408,133.245010 215.999329,143.777512 207.197968,154.307236 
	C191.715332,172.830261 179.218536,193.368683 168.223907,214.714493 
	C160.194214,230.303940 152.752747,246.301727 148.718826,263.598907 
	C145.664688,276.694824 141.373505,289.565674 139.239883,302.795868 
	C136.874115,317.465576 135.688904,332.407837 135.182617,347.272064 
	C134.681152,361.994995 135.348434,376.784607 136.092407,391.515228 
	C136.779770,405.124756 136.869064,418.799316 140.862808,432.122650 
	C143.351578,440.425232 143.937805,449.296814 146.409042,457.606323 
	C149.809998,469.041992 153.941345,480.281738 158.223602,491.427185 
	C161.484161,499.913452 165.016190,508.359314 169.243225,516.393982 
	C174.380402,526.158630 180.187668,535.589600 186.051788,544.947571 
	C191.506042,553.651550 196.954697,562.426086 203.220169,570.540771 
	C216.590485,587.857361 230.209457,605.020691 247.383713,618.897217 
	C258.018738,627.490112 268.177582,636.767212 279.387726,644.527222 
	C291.048218,652.599060 303.549194,659.519287 315.999268,666.367432 
	C325.369598,671.521484 335.046906,676.236389 344.935669,680.299622 
	C357.913452,685.632080 371.088715,690.586670 384.454376,694.838196 
	C394.223175,697.945496 404.328613,700.474609 414.475006,701.808655 
	C432.130920,704.130127 449.907837,705.780029 467.686066,706.828064 
	C478.049072,707.438904 488.513275,706.333191 498.931946,706.000122 
	C515.242249,705.478699 531.509155,705.097107 547.352112,700.130432 
	C557.407043,696.978271 567.908020,695.272461 578.037292,692.327576 
	C588.607361,689.254517 598.971313,685.472900 610.224182,681.970947 
z"/>
<path fill="#FFFFFF" opacity="1.000000" stroke="none" 
	d="
M609.824768,681.985962 
	C598.971313,685.472900 588.607361,689.254517 578.037292,692.327576 
	C567.908020,695.272461 557.407043,696.978271 547.352112,700.130432 
	C531.509155,705.097107 515.242249,705.478699 498.931946,706.000122 
	C488.513275,706.333191 478.049072,707.438904 467.686066,706.828064 
	C449.907837,705.780029 432.130920,704.130127 414.475006,701.808655 
	C404.328613,700.474609 394.223175,697.945496 384.454376,694.838196 
	C371.088715,690.586670 357.913452,685.632080 344.935669,680.299622 
	C335.046906,676.236389 325.369598,671.521484 315.999268,666.367432 
	C303.549194,659.519287 291.048218,652.599060 279.387726,644.527222 
	C268.177582,636.767212 258.018738,627.490112 247.383713,618.897217 
	C230.209457,605.020691 216.590485,587.857361 203.220169,570.540771 
	C196.954697,562.426086 191.506042,553.651550 186.051788,544.947571 
	C180.187668,535.589600 174.380402,526.158630 169.243225,516.393982 
	C165.016190,508.359314 161.484161,499.913452 158.223602,491.427185 
	C153.941345,480.281738 149.809998,469.041992 146.409042,457.606323 
	C143.937805,449.296814 143.351578,440.425232 140.862808,432.122650 
	C136.869064,418.799316 136.779770,405.124756 136.092407,391.515228 
	C135.348434,376.784607 134.681152,361.994995 135.182617,347.272064 
	C135.688904,332.407837 136.874115,317.465576 139.239883,302.795868 
	C141.373505,289.565674 145.664688,276.694824 148.718826,263.598907 
	C152.752747,246.301727 160.194214,230.303940 168.223907,214.714493 
	C179.218536,193.368683 191.715332,172.830261 207.197968,154.307236 
	C215.999329,143.777512 224.799408,133.245010 233.755569,122.847733 
	C235.762421,120.517960 238.413208,118.740852 240.778610,116.722282 
	C249.799973,109.023781 258.536926,100.953995 267.933899,93.744720 
	C276.771484,86.964607 286.150330,80.846161 295.577667,74.890343 
	C306.168549,68.199471 316.746460,61.343876 327.939514,55.787838 
	C341.239868,49.185768 355.003937,43.394657 368.921234,38.201241 
	C378.497040,34.627914 388.811279,33.083405 398.551056,29.887314 
	C411.774109,25.548174 425.694611,25.604916 439.045776,22.730116 
	C459.935333,18.232130 480.871338,20.694515 501.770569,20.182354 
	C508.463593,20.018335 515.197510,22.088118 521.933533,22.978346 
	C530.811157,24.151615 539.838867,24.552656 548.570984,26.386265 
	C565.311646,29.901560 581.790405,34.415001 597.730896,40.875809 
	C612.732849,46.956261 627.811523,52.737518 641.757874,61.131950 
	C647.628906,64.665749 654.204590,67.041298 660.020569,70.651222 
	C667.818970,75.491623 675.366577,80.785751 682.700500,86.311569 
	C691.285461,92.779938 699.645813,99.563446 707.863037,106.495453 
	C711.983032,109.971046 715.634766,114.016418 719.380615,117.917114 
	C724.442871,123.188614 729.567749,128.416672 734.345581,133.940384 
	C740.510803,141.067963 746.547119,148.324890 752.295227,155.790726 
	C758.955750,164.441833 765.779175,173.045334 771.549194,182.283310 
	C777.953125,192.536224 783.012695,203.618195 789.082153,214.093201 
	C797.503540,228.627609 803.119263,244.285858 807.951538,260.222168 
	C812.907043,276.565063 816.130676,293.299683 819.388489,310.099365 
	C824.657104,337.268463 822.331299,364.457672 822.831055,391.640167 
	C822.957642,398.523743 821.099670,405.462341 819.972473,412.345978 
	C818.404480,421.920807 816.970642,431.533234 814.934265,441.012421 
	C811.124573,458.746216 805.937988,476.113342 798.911743,492.845184 
	C794.510071,503.327087 790.174866,513.965881 784.433350,523.724426 
	C776.816711,536.669922 770.410950,550.385742 760.187256,561.819214 
	C753.896484,568.854492 749.583618,577.638184 743.433167,584.824219 
	C735.500427,594.092651 726.790955,602.723755 718.089050,611.297546 
	C711.473816,617.815491 704.580627,624.100403 697.385132,629.966431 
	C690.121765,635.887695 682.590088,641.564209 674.713989,646.629578 
	C663.227478,654.016968 651.506958,661.086914 639.547424,667.677734 
	C630.036011,672.919434 620.017578,677.240967 609.824768,681.985962 
M726.960449,263.637238 
	C722.058411,249.776993 715.320801,236.842758 706.950439,224.788300 
	C699.394043,213.906174 692.350769,202.534225 683.692383,192.587158 
	C674.418823,181.933289 663.815735,172.362137 653.231018,162.950348 
	C646.218323,156.714706 638.413818,151.297699 630.601196,146.054474 
	C623.310608,141.161545 615.729675,136.618484 607.935547,132.579422 
	C597.890564,127.373894 587.763000,122.138077 577.197937,118.177170 
	C565.863342,113.927765 553.895142,111.402946 542.357117,107.652794 
	C527.553772,102.841324 512.159607,101.403275 496.889069,100.281082 
	C483.239075,99.277962 469.373230,100.135948 455.678314,101.172737 
	C445.402252,101.950706 435.280762,104.580612 425.028809,105.911163 
	C409.614716,107.911674 394.813873,112.516869 380.696014,118.406967 
	C363.437347,125.607468 346.138489,133.196243 330.971436,144.562759 
	C321.247559,151.850067 311.390869,158.984512 301.997864,166.680756 
	C295.428070,172.063782 289.344238,178.088440 283.405914,184.179932 
	C277.590912,190.144913 271.989716,196.359299 266.758118,202.838440 
	C262.839233,207.691772 259.542542,213.066467 256.171295,218.338531 
	C251.073456,226.310745 245.802582,234.203857 241.254517,242.487091 
	C236.800568,250.598938 232.525864,258.922577 229.322418,267.578827 
	C225.383591,278.222198 222.447632,289.254425 219.420410,300.213135 
	C215.422440,314.686096 213.664093,329.619843 213.195984,344.509064 
	C212.482681,367.198486 212.332275,389.976898 217.016052,412.408936 
	C218.725708,420.596954 220.130341,428.895660 222.558899,436.874573 
	C225.567001,446.757599 228.903671,456.629425 233.172058,466.017975 
	C238.747482,478.281555 244.777237,490.428375 251.740982,501.942291 
	C257.186005,510.945190 264.283905,518.959839 270.772675,527.316284 
	C275.957489,533.993469 280.726624,541.148987 286.755585,546.980408 
	C297.023743,556.912109 307.641022,566.628845 319.037689,575.205444 
	C329.793060,583.299377 341.640350,589.974915 353.189423,596.973877 
	C369.858521,607.075684 388.213715,613.442566 406.746399,618.773926 
	C425.542877,624.181152 444.867157,628.380493 464.501465,628.781982 
	C482.145081,629.142822 499.995636,628.932190 517.441101,626.613220 
	C533.258850,624.510681 548.792786,619.704529 564.201782,615.229248 
	C587.353821,608.505188 608.322876,596.916992 628.416992,583.874329 
	C637.401978,578.042419 645.909668,571.338623 654.000671,564.302246 
	C663.019653,556.458801 671.690796,548.132324 679.813232,539.367249 
	C686.298645,532.368774 692.048767,524.618958 697.555237,516.801086 
	C704.319580,507.197357 711.516296,497.680298 716.665100,487.210541 
	C723.422852,473.469238 728.649536,458.940308 733.974548,444.542938 
	C736.909058,436.608856 739.171204,428.348602 740.883301,420.059174 
	C743.106689,409.294250 744.723145,398.385376 746.139526,387.478546 
	C747.151794,379.683929 747.918579,371.787018 747.860352,363.942688 
	C747.796021,355.272705 747.028992,346.563477 745.910461,337.956787 
	C744.430176,326.566589 743.176453,315.030060 740.245422,303.975311 
	C736.691162,290.570007 731.488708,277.601685 726.960449,263.637238 
z"/>
<path fill="#5F518F" opacity="1.000000" stroke="none"
	d="
M726.979919,264.040771 
	C731.488708,277.601685 736.691162,290.570007 740.245422,303.975311 
	C743.176453,315.030060 744.430176,326.566589 745.910461,337.956787 
	C747.028992,346.563477 747.796021,355.272705 747.860352,363.942688 
	C747.918579,371.787018 747.151794,379.683929 746.139526,387.478546 
	C744.723145,398.385376 743.106689,409.294250 740.883301,420.059174 
	C739.171204,428.348602 736.909058,436.608856 733.974548,444.542938 
	C728.649536,458.940308 723.422852,473.469238 716.665100,487.210541 
	C711.516296,497.680298 704.319580,507.197357 697.555237,516.801086 
	C692.048767,524.618958 686.298645,532.368774 679.813232,539.367249 
	C671.690796,548.132324 663.019653,556.458801 654.000671,564.302246 
	C645.909668,571.338623 637.401978,578.042419 628.416992,583.874329 
	C608.322876,596.916992 587.353821,608.505188 564.201782,615.229248 
	C548.792786,619.704529 533.258850,624.510681 517.441101,626.613220 
	C499.995636,628.932190 482.145081,629.142822 464.501465,628.781982 
	C444.867157,628.380493 425.542877,624.181152 406.746399,618.773926 
	C388.213715,613.442566 369.858521,607.075684 353.189423,596.973877 
	C341.640350,589.974915 329.793060,583.299377 319.037689,575.205444 
	C307.641022,566.628845 297.023743,556.912109 286.755585,546.980408 
	C280.726624,541.148987 275.957489,533.993469 270.772675,527.316284 
	C264.283905,518.959839 257.186005,510.945190 251.740982,501.942291 
	C244.777237,490.428375 238.747482,478.281555 233.172058,466.017975 
	C228.903671,456.629425 225.567001,446.757599 222.558899,436.874573 
	C220.130341,428.895660 218.725708,420.596954 217.016052,412.408936 
	C212.332275,389.976898 212.482681,367.198486 213.195984,344.509064 
	C213.664093,329.619843 215.422440,314.686096 219.420410,300.213135 
	C222.447632,289.254425 225.383591,278.222198 229.322418,267.578827 
	C232.525864,258.922577 236.800568,250.598938 241.254517,242.487091 
	C245.802582,234.203857 251.073456,226.310745 256.171295,218.338531 
	C259.542542,213.066467 262.839233,207.691772 266.758118,202.838440 
	C271.989716,196.359299 277.590912,190.144913 283.405914,184.179932 
	C289.344238,178.088440 295.428070,172.063782 301.997864,166.680756 
	C311.390869,158.984512 321.247559,151.850067 330.971436,144.562759 
	C346.138489,133.196243 363.437347,125.607468 380.696014,118.406967 
	C394.813873,112.516869 409.614716,107.911674 425.028809,105.911163 
	C435.280762,104.580612 445.402252,101.950706 455.678314,101.172737 
	C469.373230,100.135948 483.239075,99.277962 496.889069,100.281082 
	C512.159607,101.403275 527.553772,102.841324 542.357117,107.652794 
	C553.895142,111.402946 565.863342,113.927765 577.197937,118.177170 
	C587.763000,122.138077 597.890564,127.373894 607.935547,132.579422 
	C615.729675,136.618484 623.310608,141.161545 630.601196,146.054474 
	C638.413818,151.297699 646.218323,156.714706 653.231018,162.950348 
	C663.815735,172.362137 674.418823,181.933289 683.692383,192.587158 
	C692.350769,202.534225 699.394043,213.906174 706.950439,224.788300 
	C715.320801,236.842758 722.058411,249.776993 726.979919,264.040771 
M504.911652,448.613525 
	C510.035919,441.814514 515.258301,435.086853 520.264893,428.202271 
	C532.265137,411.700836 544.181213,395.138092 556.098694,378.576599 
	C567.262756,363.062042 578.358704,347.498291 589.574707,332.021484 
	C590.476990,330.776428 592.078125,330.037781 593.354492,329.063812 
	C593.903015,330.652954 594.946533,332.250305 594.920471,333.829956 
	C594.737183,344.918243 594.068054,356.002350 594.045410,367.088806 
	C593.941895,417.754944 594.045837,468.421539 593.914368,519.087524 
	C593.903687,523.209473 595.320740,524.108521 599.140381,524.076233 
	C618.638855,523.911194 638.139404,524.000000 657.639282,524.000000 
	C665.650330,523.999939 666.999573,522.644958 666.999634,514.585266 
	C667.000183,424.085846 667.000000,333.586426 667.000000,243.087006 
	C667.000000,231.253754 667.030212,219.420380 666.986755,207.587280 
	C666.966370,202.041153 665.871216,201.004089 660.383972,201.002075 
	C644.384094,200.996216 628.378540,201.246246 612.386963,200.882050 
	C605.740479,200.730682 601.387329,202.221985 597.605164,208.475815 
	C592.513611,216.894730 585.453064,224.100769 579.511902,232.032791 
	C569.208984,245.788010 559.156128,259.730225 548.921814,273.537292 
	C541.878845,283.038940 534.722717,292.456970 527.587524,301.889954 
	C521.227966,310.297394 514.797302,318.651123 508.452667,327.069763 
	C499.463806,338.997070 490.466522,350.919037 481.611389,362.945312 
	C479.694672,365.548431 478.539978,366.252319 476.505371,363.069244 
	C473.554352,358.452515 470.404144,353.939758 467.042267,349.613159 
	C454.430725,333.382782 441.604828,317.318481 429.047760,301.046448 
	C421.710114,291.537994 414.668060,281.798737 407.602966,272.083344 
	C396.289642,256.526245 385.079132,240.894455 373.802063,225.310944 
	C368.475433,217.950165 363.229797,210.522568 357.623474,203.379547 
	C356.528778,201.984848 353.945679,201.117096 352.039368,201.100128 
	C333.374298,200.934067 314.707153,200.998886 296.040619,201.000977 
	C291.938232,201.001434 289.915649,202.519928 289.920319,207.162689 
	C290.024323,310.661896 290.020844,414.161285 289.932404,517.660522 
	C289.928406,522.362000 291.480713,524.118286 296.264435,524.074768 
	C315.929352,523.895935 335.596832,524.000244 355.263367,523.999817 
	C361.991364,523.999695 361.998627,523.998901 361.998840,517.067078 
	C362.000824,455.900787 362.000000,394.734528 362.000000,333.568237 
	C362.000000,331.774994 362.000000,329.981720 362.000000,327.686737 
	C363.319824,328.196198 364.460022,328.267517 364.878540,328.853912 
	C370.034851,336.078674 374.996002,343.443268 380.183746,350.644867 
	C389.094971,363.015350 398.126068,375.299500 407.115631,387.613495 
	C412.576813,395.094299 418.055145,402.562592 423.524292,410.037567 
	C430.351349,419.368439 437.563599,428.445953 443.912231,438.091797 
	C453.383118,452.481323 472.288330,463.420044 492.082092,455.910950 
	C496.392914,454.275513 500.203949,451.322479 504.911652,448.613525 
z"/>
<path fill="#FFFFFF" opacity="1.000000" stroke="none" 
	d="
M504.578400,448.794922 
	C500.203949,451.322479 496.392914,454.275513 492.082092,455.910950 
	C472.288330,463.420044 453.383118,452.481323 443.912231,438.091797 
	C437.563599,428.445953 430.351349,419.368439 423.524292,410.037567 
	C418.055145,402.562592 412.576813,395.094299 407.115631,387.613495 
	C398.126068,375.299500 389.094971,363.015350 380.183746,350.644867 
	C374.996002,343.443268 370.034851,336.078674 364.878540,328.853912 
	C364.460022,328.267517 363.319824,328.196198 362.000000,327.686737 
	C362.000000,329.981720 362.000000,331.774994 362.000000,333.568237 
	C362.000000,394.734528 362.000824,455.900787 361.998840,517.067078 
	C361.998627,523.998901 361.991364,523.999695 355.263367,523.999817 
	C335.596832,524.000244 315.929352,523.895935 296.264435,524.074768 
	C291.480713,524.118286 289.928406,522.362000 289.932404,517.660522 
	C290.020844,414.161285 290.024323,310.661896 289.920319,207.162689 
	C289.915649,202.519928 291.938232,201.001434 296.040619,201.000977 
	C314.707153,200.998886 333.374298,200.934067 352.039368,201.100128 
	C353.945679,201.117096 356.528778,201.984848 357.623474,203.379547 
	C363.229797,210.522568 368.475433,217.950165 373.802063,225.310944 
	C385.079132,240.894455 396.289642,256.526245 407.602966,272.083344 
	C414.668060,281.798737 421.710114,291.537994 429.047760,301.046448 
	C441.604828,317.318481 454.430725,333.382782 467.042267,349.613159 
	C470.404144,353.939758 473.554352,358.452515 476.505371,363.069244 
	C478.539978,366.252319 479.694672,365.548431 481.611389,362.945312 
	C490.466522,350.919037 499.463806,338.997070 508.452667,327.069763 
	C514.797302,318.651123 521.227966,310.297394 527.587524,301.889954 
	C534.722717,292.456970 541.878845,283.038940 548.921814,273.537292 
	C559.156128,259.730225 569.208984,245.788010 579.511902,232.032791 
	C585.453064,224.100769 592.513611,216.894730 597.605164,208.475815 
	C601.387329,202.221985 605.740479,200.730682 612.386963,200.882050 
	C628.378540,201.246246 644.384094,200.996216 660.383972,201.002075 
	C665.871216,201.004089 666.966370,202.041153 666.986755,207.587280 
	C667.030212,219.420380 667.000000,231.253754 667.000000,243.087006 
	C667.000000,333.586426 667.000183,424.085846 666.999634,514.585266 
	C666.999573,522.644958 665.650330,523.999939 657.639282,524.000000 
	C638.139404,524.000000 618.638855,523.911194 599.140381,524.076233 
	C595.320740,524.108521 593.903687,523.209473 593.914368,519.087524 
	C594.045837,468.421539 593.941895,417.754944 594.045410,367.088806 
	C594.068054,356.002350 594.737183,344.918243 594.920471,333.829956 
	C594.946533,332.250305 593.903015,330.652954 593.354492,329.063812 
	C592.078125,330.037781 590.476990,330.776428 589.574707,332.021484 
	C578.358704,347.498291 567.262756,363.062042 556.098694,378.576599 
	C544.181213,395.138092 532.265137,411.700836 520.264893,428.202271 
	C515.258301,435.086853 510.035919,441.814514 504.578400,448.794922 
z"/>
</svg>